<?xml version="1.0" encoding="UTF-8"?>
<!DOCTYPE svg PUBLIC "-//W3C//DTD SVG 1.1//EN" "http://www.w3.org/Graphics/SVG/1.1/DTD/svg11.dtd">
<svg xmlns="http://www.w3.org/2000/svg" version="1.1" width="512px" height="512px" style="shape-rendering:geometricPrecision; text-rendering:geometricPrecision; image-rendering:optimizeQuality; fill-rule:evenodd; clip-rule:evenodd" xmlns:xlink="http://www.w3.org/1999/xlink">
<g><path style="opacity:0.996" fill="#61e0fb" d="M 290.5,27.5 C 233.216,83.1175 176.549,139.451 120.5,196.5C 100.496,190.92 86.3298,197.586 78,216.5C 74.9765,229.592 78.1431,240.926 87.5,250.5C 86.7611,250.369 86.0944,250.536 85.5,251C 61.2986,275.368 36.9653,299.535 12.5,323.5C 11.9282,311.448 10.7615,299.448 9,287.5C 5.73791,270.035 2.57125,252.702 -0.5,235.5C -0.5,222.167 -0.5,208.833 -0.5,195.5C 9.84307,115.663 51.5097,58.8295 124.5,25C 180.309,2.45253 235.642,3.28586 290.5,27.5 Z"/></g>
<g><path style="opacity:0.999" fill="#5fdffa" d="M 290.5,27.5 C 295.484,29.3255 300.151,31.6589 304.5,34.5C 303.448,34.3505 302.448,34.5172 301.5,35C 244.965,91.3679 188.632,147.868 132.5,204.5C 128.772,201.441 124.772,198.774 120.5,196.5C 176.549,139.451 233.216,83.1175 290.5,27.5 Z"/></g>
<g><path style="opacity:0.999" fill="#5adcfa" d="M 304.5,34.5 C 310.633,37.0654 316.299,40.3988 321.5,44.5C 263.784,103.216 205.451,161.216 146.5,218.5C 143.203,215.704 140.036,212.704 137,209.5C 136.601,209.728 136.435,210.062 136.5,210.5C 134.808,208.795 133.475,206.795 132.5,204.5C 188.632,147.868 244.965,91.3679 301.5,35C 302.448,34.5172 303.448,34.3505 304.5,34.5 Z"/></g>
<g><path style="opacity:0.999" fill="#55d8f9" d="M 321.5,44.5 C 328.571,49.3636 335.238,54.6969 341.5,60.5C 296.084,104.416 251.084,148.916 206.5,194C 207.416,194.278 208.082,194.778 208.5,195.5C 188.699,191.506 175.199,198.839 168,217.5C 166.847,225.758 167.681,233.758 170.5,241.5C 165.558,237.897 160.892,233.897 156.5,229.5C 153.167,225.833 149.833,222.167 146.5,218.5C 205.451,161.216 263.784,103.216 321.5,44.5 Z"/></g>
<g><path style="opacity:0.999" fill="#4dd3f9" d="M 341.5,60.5 C 348.5,65.5 354.5,71.5 359.5,78.5C 315.5,122.167 271.5,165.833 227.5,209.5C 227.158,208.662 226.492,208.328 225.5,208.5C 221.096,202.47 215.43,198.137 208.5,195.5C 208.082,194.778 207.416,194.278 206.5,194C 251.084,148.916 296.084,104.416 341.5,60.5 Z"/></g>
<g><path style="opacity:0.998" fill="#47d0f9" d="M 359.5,78.5 C 364.561,83.2288 368.894,88.5622 372.5,94.5C 329.368,137.132 286.368,179.965 243.5,223C 242.906,223.464 242.239,223.631 241.5,223.5C 236.5,219.167 231.833,214.5 227.5,209.5C 271.5,165.833 315.5,122.167 359.5,78.5 Z"/></g>
<g><path style="opacity:0.998" fill="#43ccf8" d="M 372.5,94.5 C 378.014,100.7 382.347,107.7 385.5,115.5C 358.702,142.799 331.702,169.965 304.5,197C 305.056,197.383 305.389,197.883 305.5,198.5C 284.61,189.703 269.11,195.37 259,215.5C 256.282,225.706 257.449,235.372 262.5,244.5C 258.833,241.167 255.167,237.833 251.5,234.5C 248.167,230.833 244.833,227.167 241.5,223.5C 242.239,223.631 242.906,223.464 243.5,223C 286.368,179.965 329.368,137.132 372.5,94.5 Z"/></g>
<g><path style="opacity:0.997" fill="#3cc8f8" d="M 385.5,115.5 C 389.207,120.247 391.874,125.581 393.5,131.5C 367.473,157.194 341.473,182.861 315.5,208.5C 312.5,204.833 309.167,201.5 305.5,198.5C 305.389,197.883 305.056,197.383 304.5,197C 331.702,169.965 358.702,142.799 385.5,115.5 Z"/></g>
<g><path style="opacity:0.996" fill="#35c4f7" d="M 393.5,131.5 C 399.604,143.812 403.937,156.812 406.5,170.5C 405.883,170.389 405.383,170.056 405,169.5C 383.915,191.086 362.415,212.086 340.5,232.5C 333.202,225.703 326.035,218.703 319,211.5C 318.536,212.094 318.369,212.761 318.5,213.5C 317.263,212.035 316.263,210.368 315.5,208.5C 341.473,182.861 367.473,157.194 393.5,131.5 Z"/></g>
<g><path style="opacity:0.999" fill="#2ebff6" d="M 406.5,170.5 C 407.285,172.374 407.952,174.374 408.5,176.5C 408.062,176.435 407.728,176.601 407.5,177C 408.805,183.763 409.805,190.597 410.5,197.5C 409.732,196.737 409.232,195.737 409,194.5C 391.299,212.368 373.465,230.035 355.5,247.5C 351.722,243.636 347.722,239.969 343.5,236.5C 342.5,235.167 341.5,233.833 340.5,232.5C 362.415,212.086 383.915,191.086 405,169.5C 405.383,170.056 405.883,170.389 406.5,170.5 Z"/></g>
<g><path style="opacity:1" fill="#3dbf92" d="M 408.5,176.5 C 415.981,179.406 422.981,183.072 429.5,187.5C 430.303,188.423 430.47,189.423 430,190.5C 423.965,196.703 417.798,202.703 411.5,208.5C 411.577,204.785 411.244,201.119 410.5,197.5C 409.805,190.597 408.805,183.763 407.5,177C 407.728,176.601 408.062,176.435 408.5,176.5 Z"/></g>
<g><path style="opacity:1" fill="#fefefe" d="M 120.5,196.5 C 124.772,198.774 128.772,201.441 132.5,204.5C 133.475,206.795 134.808,208.795 136.5,210.5C 143.71,227.495 140.043,241.662 125.5,253C 115.037,258.354 104.37,258.854 93.5,254.5C 91.7952,252.808 89.7952,251.475 87.5,250.5C 78.1431,240.926 74.9765,229.592 78,216.5C 86.3298,197.586 100.496,190.92 120.5,196.5 Z"/></g>
<g><path style="opacity:1" fill="#fefefe" d="M 208.5,195.5 C 215.43,198.137 221.096,202.47 225.5,208.5C 233.671,224.97 231.005,239.47 217.5,252C 206.544,258.252 195.211,259.086 183.5,254.5C 178.874,251.542 174.874,247.876 171.5,243.5C 171.672,242.508 171.338,241.842 170.5,241.5C 167.681,233.758 166.847,225.758 168,217.5C 175.199,198.839 188.699,191.506 208.5,195.5 Z"/></g>
<g><path style="opacity:1" fill="#fefefe" d="M 305.5,198.5 C 309.167,201.5 312.5,204.833 315.5,208.5C 316.263,210.368 317.263,212.035 318.5,213.5C 323.977,233.04 317.644,247.207 299.5,256C 290.101,258.631 281.101,257.798 272.5,253.5C 268.544,251.212 265.211,248.212 262.5,244.5C 257.449,235.372 256.282,225.706 259,215.5C 269.11,195.37 284.61,189.703 305.5,198.5 Z"/></g>
<g><path style="opacity:1" fill="#29bcf5" d="M 410.5,197.5 C 411.244,201.119 411.577,204.785 411.5,208.5C 411.74,214.227 411.407,219.894 410.5,225.5C 397.535,237.965 384.702,250.631 372,263.5C 366.023,258.69 360.523,253.357 355.5,247.5C 373.465,230.035 391.299,212.368 409,194.5C 409.232,195.737 409.732,196.737 410.5,197.5 Z"/></g>
<g><path style="opacity:1" fill="#55cc9e" d="M 429.5,187.5 C 435.142,190.322 440.475,193.655 445.5,197.5C 446.366,199.144 446.866,200.811 447,202.5C 434.965,214.702 422.798,226.702 410.5,238.5C 410.5,234.167 410.5,229.833 410.5,225.5C 411.407,219.894 411.74,214.227 411.5,208.5C 417.798,202.703 423.965,196.703 430,190.5C 430.47,189.423 430.303,188.423 429.5,187.5 Z"/></g>
<g><path style="opacity:1" fill="#64d4a6" d="M 445.5,197.5 C 450.126,200.458 454.126,204.124 457.5,208.5C 441.167,225.84 424.5,242.174 407.5,257.5C 407.884,250.941 408.884,244.608 410.5,238.5C 422.798,226.702 434.965,214.702 447,202.5C 446.866,200.811 446.366,199.144 445.5,197.5 Z"/></g>
<g><path style="opacity:1" fill="#70dbac" d="M 457.5,208.5 C 461.5,210.5 464.5,213.5 466.5,217.5C 466.414,218.496 466.748,219.329 467.5,220C 444.916,243.086 421.916,265.586 398.5,287.5C 401.109,280.338 403.109,273.004 404.5,265.5C 405.251,262.754 406.251,260.087 407.5,257.5C 424.5,242.174 441.167,225.84 457.5,208.5 Z"/></g>
<g><path style="opacity:1" fill="#25b3f1" d="M 340.5,232.5 C 341.5,233.833 342.5,235.167 343.5,236.5C 329.552,252.115 314.886,267.115 299.5,281.5C 298.167,280.5 296.833,279.5 295.5,278.5C 289.5,271.833 283.167,265.5 276.5,259.5C 275.04,257.537 273.373,255.704 271.5,254C 271.728,253.601 272.062,253.435 272.5,253.5C 281.101,257.798 290.101,258.631 299.5,256C 317.644,247.207 323.977,233.04 318.5,213.5C 318.369,212.761 318.536,212.094 319,211.5C 326.035,218.703 333.202,225.703 340.5,232.5 Z"/></g>
<g><path style="opacity:1" fill="#30baf2" d="M 225.5,208.5 C 226.492,208.328 227.158,208.662 227.5,209.5C 231.833,214.5 236.5,219.167 241.5,223.5C 244.833,227.167 248.167,230.833 251.5,234.5C 250.761,234.369 250.094,234.536 249.5,235C 236.196,249.305 222.529,263.305 208.5,277C 207.552,277.483 206.552,277.649 205.5,277.5C 197.151,270.166 189.818,262.499 183.5,254.5C 195.211,259.086 206.544,258.252 217.5,252C 231.005,239.47 233.671,224.97 225.5,208.5 Z"/></g>
<g><path style="opacity:1" fill="#22b7f5" d="M 410.5,225.5 C 410.5,229.833 410.5,234.167 410.5,238.5C 408.884,244.608 407.884,250.941 407.5,257.5C 406.251,260.087 405.251,262.754 404.5,265.5C 404.631,264.761 404.464,264.094 404,263.5C 353.296,313.701 303.462,364.034 254.5,414.5C 254.5,414.833 254.5,415.167 254.5,415.5C 249.115,416.244 243.782,417.244 238.5,418.5C 230.886,419.713 223.219,420.38 215.5,420.5C 252.299,383.201 289.299,346.035 326.5,309C 321.298,303.63 315.965,298.464 310.5,293.5C 306.833,289.5 303.167,285.5 299.5,281.5C 314.886,267.115 329.552,252.115 343.5,236.5C 347.722,239.969 351.722,243.636 355.5,247.5C 360.523,253.357 366.023,258.69 372,263.5C 384.702,250.631 397.535,237.965 410.5,225.5 Z"/></g>
<g><path style="opacity:1" fill="#3bc0f3" d="M 146.5,218.5 C 149.833,222.167 153.167,225.833 156.5,229.5C 142.115,244.886 127.115,259.552 111.5,273.5C 108.167,270.5 104.833,267.5 101.5,264.5C 98.7044,261.203 95.7044,258.036 92.5,255C 92.7284,254.601 93.0618,254.435 93.5,254.5C 104.37,258.854 115.037,258.354 125.5,253C 140.043,241.662 143.71,227.495 136.5,210.5C 136.435,210.062 136.601,209.728 137,209.5C 140.036,212.704 143.203,215.704 146.5,218.5 Z"/></g>
<g><path style="opacity:1" fill="#7ee2b3" d="M 466.5,217.5 C 471.628,222.418 476.295,227.751 480.5,233.5C 401.544,311.956 322.877,390.456 244.5,469C 243.906,469.464 243.239,469.631 242.5,469.5C 239.19,467.518 236.19,465.185 233.5,462.5C 234.822,462.33 235.989,462.663 237,463.5C 257.167,443.333 277.333,423.167 297.5,403C 296.756,401.961 295.756,401.461 294.5,401.5C 343.379,376.614 378.046,338.614 398.5,287.5C 421.916,265.586 444.916,243.086 467.5,220C 466.748,219.329 466.414,218.496 466.5,217.5 Z"/></g>
<g><path style="opacity:1" fill="#3bc4f4" d="M 156.5,229.5 C 160.892,233.897 165.558,237.897 170.5,241.5C 171.338,241.842 171.672,242.508 171.5,243.5C 171.414,244.496 171.748,245.329 172.5,246C 157.914,261.088 142.914,275.588 127.5,289.5C 124.5,286.833 121.5,284.167 118.5,281.5C 116.167,278.833 113.833,276.167 111.5,273.5C 127.115,259.552 142.115,244.886 156.5,229.5 Z"/></g>
<g><path style="opacity:0.998" fill="#85e6b6" d="M 480.5,233.5 C 482.925,236.589 484.925,239.922 486.5,243.5C 407.882,320.451 329.882,398.118 252.5,476.5C 248.779,474.646 245.446,472.313 242.5,469.5C 243.239,469.631 243.906,469.464 244.5,469C 322.877,390.456 401.544,311.956 480.5,233.5 Z"/></g>
<g><path style="opacity:1" fill="#30bff5" d="M 251.5,234.5 C 255.167,237.833 258.833,241.167 262.5,244.5C 265.211,248.212 268.544,251.212 272.5,253.5C 272.062,253.435 271.728,253.601 271.5,254C 273.373,255.704 275.04,257.537 276.5,259.5C 262.369,274.132 248.035,288.632 233.5,303C 232.833,303.667 232.167,303.667 231.5,303C 230.295,301.624 228.962,300.458 227.5,299.5C 222.833,295.167 218.167,290.833 213.5,286.5C 210.833,283.5 208.167,280.5 205.5,277.5C 206.552,277.649 207.552,277.483 208.5,277C 222.529,263.305 236.196,249.305 249.5,235C 250.094,234.536 250.761,234.369 251.5,234.5 Z"/></g>
<g><path style="opacity:0.998" fill="#41cbf8" d="M 171.5,243.5 C 174.874,247.876 178.874,251.542 183.5,254.5C 189.818,262.499 197.151,270.166 205.5,277.5C 208.167,280.5 210.833,283.5 213.5,286.5C 213.631,287.239 213.464,287.906 213,288.5C 173.299,328.035 133.799,367.701 94.5,407.5C 79.8333,407.5 65.1667,407.5 50.5,407.5C 53.6414,406.679 56.9748,406.179 60.5,406C 90.8333,375.667 121.167,345.333 151.5,315C 146.996,309.33 141.996,304.163 136.5,299.5C 133.5,296.167 130.5,292.833 127.5,289.5C 142.914,275.588 157.914,261.088 172.5,246C 171.748,245.329 171.414,244.496 171.5,243.5 Z"/></g>
<g><path style="opacity:0.998" fill="#5adcfa" d="M 87.5,250.5 C 89.7952,251.475 91.7952,252.808 93.5,254.5C 93.0618,254.435 92.7284,254.601 92.5,255C 95.7044,258.036 98.7044,261.203 101.5,264.5C 72.5,294.167 43.1667,323.5 13.5,352.5C 13.5325,342.817 13.1992,333.151 12.5,323.5C 36.9653,299.535 61.2986,275.368 85.5,251C 86.0944,250.536 86.7611,250.369 87.5,250.5 Z"/></g>
<g><path style="opacity:0.998" fill="#34c3f7" d="M 276.5,259.5 C 283.167,265.5 289.5,271.833 295.5,278.5C 250.535,323.965 205.368,369.299 160,414.5C 159.536,415.094 159.369,415.761 159.5,416.5C 147.924,413.985 136.258,411.985 124.5,410.5C 159.632,374.868 194.965,339.368 230.5,304C 228.859,302.871 227.859,301.371 227.5,299.5C 228.962,300.458 230.295,301.624 231.5,303C 232.167,303.667 232.833,303.667 233.5,303C 248.035,288.632 262.369,274.132 276.5,259.5 Z"/></g>
<g><path style="opacity:1" fill="#8deabb" d="M 486.5,243.5 C 493.486,254.417 499.152,266.084 503.5,278.5C 502.761,278.369 502.094,278.536 501.5,279C 430.299,350.368 358.965,421.535 287.5,492.5C 274.943,489.054 263.277,483.721 252.5,476.5C 329.882,398.118 407.882,320.451 486.5,243.5 Z"/></g>
<g><path style="opacity:0.998" fill="#54d8f9" d="M 101.5,264.5 C 104.833,267.5 108.167,270.5 111.5,273.5C 113.833,276.167 116.167,278.833 118.5,281.5C 84.2015,316.299 49.7015,350.965 15,385.5C 14.8091,387.708 14.3091,389.708 13.5,391.5C 13.5,378.5 13.5,365.5 13.5,352.5C 43.1667,323.5 72.5,294.167 101.5,264.5 Z"/></g>
<g><path style="opacity:1" fill="#1cb4f4" d="M 404.5,265.5 C 403.109,273.004 401.109,280.338 398.5,287.5C 378.046,338.614 343.379,376.614 294.5,401.5C 281.7,407.433 268.367,411.767 254.5,414.5C 303.462,364.034 353.296,313.701 404,263.5C 404.464,264.094 404.631,264.761 404.5,265.5 Z"/></g>
<g><path style="opacity:0.998" fill="#2ebff7" d="M 295.5,278.5 C 296.833,279.5 298.167,280.5 299.5,281.5C 303.167,285.5 306.833,289.5 310.5,293.5C 267.833,335.5 225.5,377.833 183.5,420.5C 175.383,419.81 167.383,418.476 159.5,416.5C 159.369,415.761 159.536,415.094 160,414.5C 205.368,369.299 250.535,323.965 295.5,278.5 Z"/></g>
<g><path style="opacity:0.998" fill="#8be9b9" d="M 503.5,278.5 C 506.311,288.075 508.644,297.742 510.5,307.5C 445.215,371.118 380.549,435.451 316.5,500.5C 306.459,498.908 296.792,496.242 287.5,492.5C 358.965,421.535 430.299,350.368 501.5,279C 502.094,278.536 502.761,278.369 503.5,278.5 Z"/></g>
<g><path style="opacity:0.997" fill="#3bc8f8" d="M 213.5,286.5 C 218.167,290.833 222.833,295.167 227.5,299.5C 227.859,301.371 228.859,302.871 230.5,304C 194.965,339.368 159.632,374.868 124.5,410.5C 114.513,409.311 104.513,408.311 94.5,407.5C 133.799,367.701 173.299,328.035 213,288.5C 213.464,287.906 213.631,287.239 213.5,286.5 Z"/></g>
<g><path style="opacity:0.998" fill="#4dd3f9" d="M 118.5,281.5 C 121.5,284.167 124.5,286.833 127.5,289.5C 130.5,292.833 133.5,296.167 136.5,299.5C 136.631,300.239 136.464,300.906 136,301.5C 100.632,336.701 65.4652,372.035 30.5,407.5C 19.6276,407.626 13.9609,402.293 13.5,391.5C 14.3091,389.708 14.8091,387.708 15,385.5C 49.7015,350.965 84.2015,316.299 118.5,281.5 Z"/></g>
<g><path style="opacity:0.998" fill="#28bcf5" d="M 310.5,293.5 C 315.965,298.464 321.298,303.63 326.5,309C 289.299,346.035 252.299,383.201 215.5,420.5C 209.894,421.407 204.227,421.74 198.5,421.5C 193.473,421.497 188.473,421.164 183.5,420.5C 225.5,377.833 267.833,335.5 310.5,293.5 Z"/></g>
<g><path style="opacity:0.997" fill="#47d0f8" d="M 136.5,299.5 C 141.996,304.163 146.996,309.33 151.5,315C 121.167,345.333 90.8333,375.667 60.5,406C 56.9748,406.179 53.6414,406.679 50.5,407.5C 43.8333,407.5 37.1667,407.5 30.5,407.5C 65.4652,372.035 100.632,336.701 136,301.5C 136.464,300.906 136.631,300.239 136.5,299.5 Z"/></g>
<g><path style="opacity:0.997" fill="#88e8b6" d="M 510.5,307.5 C 510.198,310.059 510.532,312.393 511.5,314.5C 511.5,318.167 511.5,321.833 511.5,325.5C 452.5,383.833 393.833,442.5 335.5,501.5C 329.143,501.524 322.81,501.19 316.5,500.5C 380.549,435.451 445.215,371.118 510.5,307.5 Z"/></g>
<g><path style="opacity:0.997" fill="#84e7b4" d="M 511.5,325.5 C 511.5,333.5 511.5,341.5 511.5,349.5C 510.883,349.389 510.383,349.056 510,348.5C 458.916,399.083 408.416,450.083 358.5,501.5C 350.787,502.243 343.12,502.243 335.5,501.5C 393.833,442.5 452.5,383.833 511.5,325.5 Z"/></g>
<g><path style="opacity:0.995" fill="#80e5b1" d="M 511.5,349.5 C 511.5,350.167 511.5,350.833 511.5,351.5C 508.267,367.338 505.267,383.338 502.5,399.5C 471.167,430.167 440.167,461.167 409.5,492.5C 392.554,495.651 375.554,498.651 358.5,501.5C 408.416,450.083 458.916,399.083 510,348.5C 510.383,349.056 510.883,349.389 511.5,349.5 Z"/></g>
<g><path style="opacity:0.999" fill="#76deaf" d="M 294.5,401.5 C 295.756,401.461 296.756,401.961 297.5,403C 277.333,423.167 257.167,443.333 237,463.5C 235.989,462.663 234.822,462.33 233.5,462.5C 228.206,458.873 223.539,454.54 219.5,449.5C 220.847,450.028 222.181,450.195 223.5,450C 234.833,438.667 246.167,427.333 257.5,416C 256.552,415.517 255.552,415.351 254.5,415.5C 254.5,415.167 254.5,414.833 254.5,414.5C 268.367,411.767 281.7,407.433 294.5,401.5 Z"/></g>
<g><path style="opacity:0.988" fill="#7ae3ac" d="M 502.5,399.5 C 500.889,415.788 500.222,432.121 500.5,448.5C 488.12,462.384 475.12,475.884 461.5,489C 458.635,489.183 455.969,489.683 453.5,490.5C 438.791,490.342 424.124,491.008 409.5,492.5C 440.167,461.167 471.167,430.167 502.5,399.5 Z"/></g>
<g><path style="opacity:1" fill="#68d6a8" d="M 254.5,415.5 C 255.552,415.351 256.552,415.517 257.5,416C 246.167,427.333 234.833,438.667 223.5,450C 222.181,450.195 220.847,450.028 219.5,449.5C 217.273,447.393 215.273,445.06 213.5,442.5C 214.873,442.657 216.207,442.49 217.5,442C 225.1,434.573 232.1,426.74 238.5,418.5C 243.782,417.244 249.115,416.244 254.5,415.5 Z"/></g>
<g><path style="opacity:1" fill="#5bcfa1" d="M 238.5,418.5 C 232.1,426.74 225.1,434.573 217.5,442C 216.207,442.49 214.873,442.657 213.5,442.5C 207.343,436.341 202.343,429.341 198.5,421.5C 204.227,421.74 209.894,421.407 215.5,420.5C 223.219,420.38 230.886,419.713 238.5,418.5 Z"/></g>
<g><path style="opacity:0.95" fill="#74e1a7" d="M 500.5,448.5 C 500.667,459.505 500.5,470.505 500,481.5C 498.939,484.562 497.106,487.062 494.5,489C 480.907,490.446 467.24,490.946 453.5,490.5C 455.969,489.683 458.635,489.183 461.5,489C 475.12,475.884 488.12,462.384 500.5,448.5 Z"/></g>
</svg>
